<?xml version="1.0" standalone="no"?>
<!DOCTYPE svg PUBLIC "-//W3C//DTD SVG 20010904//EN"
 "http://www.w3.org/TR/2001/REC-SVG-20010904/DTD/svg10.dtd">
<svg version="1.0" xmlns="http://www.w3.org/2000/svg"
 width="1563.000000pt" height="1563.000000pt" viewBox="0 0 1563.000000 1563.000000"
 preserveAspectRatio="xMidYMid meet">

<g transform="translate(0.000000,1563.000000) scale(0.100000,-0.100000)"
fill="#000000" stroke="none">
<path d="M7375 15423 c-236 -7 -571 -45 -885 -99 -1184 -203 -2324 -698 -3280
-1425 -873 -664 -1580 -1482 -2104 -2437 -130 -236 -318 -638 -401 -857 -258
-681 -406 -1285 -479 -1950 -9 -77 -20 -185 -26 -240 -17 -150 -23 -733 -11
-960 11 -206 32 -459 51 -600 6 -44 15 -114 20 -155 17 -141 69 -423 111 -600
42 -179 52 -220 96 -374 245 -875 671 -1738 1220 -2471 248 -332 449 -563 752
-865 597 -595 1225 -1044 1986 -1420 832 -411 1721 -667 2606 -750 99 -10 138
-10 185 0 84 18 1094 20 1094 3 0 -33 107 -29 478 18 938 117 1891 428 2712
887 838 468 1532 1040 2155 1777 588 695 1056 1519 1362 2395 440 1264 539
2617 288 3945 -228 1203 -764 2364 -1538 3330 -177 220 -323 381 -562 621
-328 328 -530 503 -885 765 -1161 859 -2566 1370 -4010 1459 -137 8 -719 10
-935 3z m568 -30 c-7 -2 -21 -2 -30 0 -10 3 -4 5 12 5 17 0 24 -2 18 -5z m397
-2528 c96 -8 200 -19 230 -24 30 -5 100 -16 155 -25 439 -71 937 -235 1366
-451 495 -249 901 -547 1310 -962 203 -205 219 -224 219 -261 0 -17 -20 -100
-43 -184 -54 -188 -110 -397 -213 -783 -48 -184 -62 -226 -78 -237 -6 -4 -36
-8 -67 -8 -67 0 -71 4 -129 115 -337 644 -740 1169 -1274 1660 -311 287 -817
606 -1171 739 -55 20 -116 44 -135 52 -19 7 -84 27 -145 44 -60 17 -132 37
-160 45 -66 19 -242 50 -380 67 -138 16 -546 16 -675 0 -313 -41 -677 -140
-920 -249 -366 -165 -599 -317 -908 -593 -72 -63 -235 -236 -299 -316 -150
-186 -265 -349 -338 -479 -108 -190 -202 -377 -250 -495 -14 -36 -32 -78 -40
-95 -76 -173 -215 -641 -255 -860 -87 -475 -116 -809 -107 -1220 4 -143 13
-339 22 -435 17 -185 74 -555 105 -680 11 -41 28 -114 40 -162 55 -234 175
-579 303 -874 46 -106 205 -425 222 -444 7 -8 39 -60 73 -115 312 -520 759
-1000 1240 -1335 247 -172 422 -273 682 -393 727 -336 1569 -459 2340 -341
234 36 379 74 625 164 240 87 451 202 741 404 64 45 253 239 291 298 15 24 46
66 68 92 103 125 235 411 320 691 90 295 145 705 145 1072 0 524 -137 896
-404 1097 -171 129 -388 203 -691 236 -49 5 -343 10 -652 10 -497 0 -563 2
-577 16 -20 19 -22 112 -3 138 12 17 101 17 1818 13 993 -2 1811 -7 1817 -11
7 -4 12 -33 12 -71 l0 -64 -54 -26 c-111 -53 -153 -190 -200 -660 -42 -415
-68 -557 -151 -827 -170 -552 -429 -1034 -785 -1465 -115 -139 -324 -354 -387
-398 -23 -17 -102 -81 -175 -143 -382 -325 -896 -599 -1429 -763 -364 -111
-673 -171 -1064 -204 -316 -27 -789 -14 -1074 30 -53 8 -127 20 -166 25 -176
26 -479 97 -680 161 -634 201 -1160 489 -1675 918 -141 117 -400 374 -501 496
-41 50 -77 92 -80 95 -3 3 -48 61 -100 130 -103 136 -234 330 -323 480 -63
105 -224 427 -280 560 -162 385 -298 875 -355 1275 -86 610 -52 1291 94 1863
92 359 211 678 368 987 64 127 262 473 277 485 3 3 17 23 30 45 13 22 49 74
80 115 30 41 66 91 79 110 130 191 486 574 707 760 16 14 56 48 89 76 443 373
1054 703 1645 887 241 75 615 157 850 187 252 32 747 39 1030 15z"/>
</g>
</svg>
