<svg xmlns="http://www.w3.org/2000/svg" xmlns:xlink="http://www.w3.org/1999/xlink" width="500" zoomAndPan="magnify" viewBox="0 0 375 374.999991" height="500" preserveAspectRatio="xMidYMid meet" version="1.0"><defs><g/><clipPath id="c0eba27624"><path d="M 84.175781 68.59375 L 321.925781 68.59375 L 321.925781 306.34375 L 84.175781 306.34375 Z M 84.175781 68.59375 " clip-rule="nonzero"/></clipPath><clipPath id="ebe4a588c4"><rect x="0" width="157" y="0" height="187"/></clipPath><clipPath id="7b4c9306f5"><path d="M 166 166.65625 L 199 166.65625 L 199 203 L 166 203 Z M 166 166.65625 " clip-rule="nonzero"/></clipPath><clipPath id="e74d1c4854"><path d="M 156.746094 184 L 159 184 L 159 187 L 156.746094 187 Z M 156.746094 184 " clip-rule="nonzero"/></clipPath></defs><g clip-path="url(#c0eba27624)"><path fill="#e4ffc2" d="M 203.082031 68.59375 C 137.519531 68.59375 84.175781 121.9375 84.175781 187.5 C 84.175781 253.066406 137.519531 306.402344 203.082031 306.402344 C 268.644531 306.402344 321.984375 253.066406 321.984375 187.5 C 321.984375 121.9375 268.644531 68.59375 203.082031 68.59375 Z M 203.082031 303.304688 C 139.226562 303.304688 87.277344 251.355469 87.277344 187.503906 C 87.277344 123.644531 139.226562 71.695312 203.082031 71.695312 C 266.933594 71.695312 318.886719 123.648438 318.886719 187.5 C 318.886719 251.355469 266.933594 303.304688 203.082031 303.304688 Z M 203.082031 303.304688 " fill-opacity="1" fill-rule="nonzero"/></g><path fill="#e4ffc2" d="M 203.082031 77.878906 C 142.636719 77.878906 93.460938 127.054688 93.460938 187.5 C 93.460938 247.945312 142.636719 297.121094 203.082031 297.121094 C 263.527344 297.121094 312.703125 247.945312 312.703125 187.5 C 312.703125 127.054688 263.527344 77.878906 203.082031 77.878906 Z M 203.082031 77.878906 " fill-opacity="1" fill-rule="nonzero"/><g transform="matrix(1, 0, 0, 1, 127, 94)"><g clip-path="url(#ebe4a588c4)"><g fill="#2d473e" fill-opacity="1"><g transform="translate(1.289837, 134.119875)"><g><path d="M 131.328125 27.234375 C 129.035156 27.234375 126.789062 27.046875 124.59375 26.671875 C 115.695312 25.296875 108.128906 21.925781 101.890625 16.5625 C 95.660156 11.207031 91.171875 4.539062 88.421875 -3.4375 C 79.804688 0.132812 70.5 1.921875 60.5 1.921875 C 44 1.921875 30.476562 -2.75 19.9375 -12.09375 C 9.394531 -21.445312 4.125 -33.457031 4.125 -48.125 C 4.125 -57.9375 6.53125 -66.644531 11.34375 -74.25 C 16.15625 -81.863281 22.914062 -87.753906 31.625 -91.921875 C 40.332031 -96.097656 50.28125 -98.1875 61.46875 -98.1875 C 68.800781 -98.1875 75.90625 -97.472656 82.78125 -96.046875 C 89.65625 -94.628906 95.203125 -92.867188 99.421875 -90.765625 L 99.703125 -67.109375 L 98.59375 -67.109375 C 96.394531 -75.453125 92.15625 -81.753906 85.875 -86.015625 C 79.59375 -90.273438 72.050781 -92.40625 63.25 -92.40625 C 52.4375 -92.40625 43.613281 -88.253906 36.78125 -79.953125 C 29.957031 -71.660156 26.546875 -60.984375 26.546875 -47.921875 C 26.546875 -34.859375 29.890625 -24.242188 36.578125 -16.078125 C 43.273438 -7.921875 51.894531 -3.84375 62.4375 -3.84375 C 68.113281 -3.84375 73.035156 -5.082031 77.203125 -7.5625 C 81.378906 -10.039062 84.203125 -13.34375 85.671875 -17.46875 L 85.671875 -38.359375 C 85.671875 -40.378906 85.070312 -41.9375 83.875 -43.03125 C 82.6875 -44.132812 80.992188 -44.6875 78.796875 -44.6875 L 76.59375 -44.6875 L 76.59375 -46.0625 L 115.234375 -46.0625 L 115.234375 -44.6875 L 113.171875 -44.6875 C 110.878906 -44.6875 109.132812 -44.132812 107.9375 -43.03125 C 106.75 -41.9375 106.203125 -40.425781 106.296875 -38.5 L 106.296875 -16.640625 C 106.390625 -10.585938 107.535156 -4.945312 109.734375 0.28125 C 114.597656 11.457031 122.664062 18.421875 133.9375 21.171875 C 136.96875 21.910156 140.109375 22.28125 143.359375 22.28125 C 146.609375 22.28125 149.929688 21.910156 153.328125 21.171875 L 153.609375 22.546875 C 145.722656 25.671875 138.296875 27.234375 131.328125 27.234375 Z M 131.328125 27.234375 "/></g></g></g></g></g><path fill="#498536" d="M 179.304688 202.679688 L 179.300781 202.683594 C 176.40625 203.503906 173.195312 203.957031 169.722656 204.035156 C 171.464844 205 179.132812 208.460938 192.007812 203.339844 C 192.007812 203.339844 180.214844 211.058594 166.785156 205.003906 C 186.109375 223.652344 201.800781 200.59375 201.800781 200.59375 C 197.804688 200.546875 193.351562 198.953125 188.902344 197.785156 C 186.179688 200 182.96875 201.640625 179.304688 202.679688 " fill-opacity="1" fill-rule="nonzero"/><g clip-path="url(#7b4c9306f5)"><path fill="#80cc28" d="M 198.226562 166.671875 C 187.429688 176.019531 163.757812 177.351562 167.953125 199.371094 C 167.953125 199.371094 180.984375 197.722656 190.71875 178.351562 C 190.71875 178.351562 185.707031 196.9375 166.429688 202.910156 C 203.238281 204.484375 198.226562 166.671875 198.226562 166.671875 " fill-opacity="1" fill-rule="nonzero"/></g><path fill="#80cc28" d="M 173.554688 213.105469 C 168.511719 209.316406 165.046875 204.523438 163.660156 200.019531 C 163.140625 204.953125 165.582031 210.4375 170.433594 214.078125 C 173.96875 216.734375 178.09375 217.894531 181.859375 217.613281 C 179.078125 216.628906 176.238281 215.121094 173.554688 213.105469 " fill-opacity="1" fill-rule="nonzero"/><path fill="#f68712" d="M 163.449219 194.316406 C 163.449219 194.316406 163.414062 194.257812 163.347656 194.152344 C 163.285156 194.042969 163.191406 193.882812 163.085938 193.671875 C 162.976562 193.464844 162.847656 193.210938 162.714844 192.910156 C 162.582031 192.613281 162.4375 192.269531 162.296875 191.894531 C 162.15625 191.515625 162.015625 191.101562 161.882812 190.65625 C 161.851562 190.546875 161.816406 190.433594 161.785156 190.320312 C 161.753906 190.207031 161.722656 190.089844 161.691406 189.972656 C 161.628906 189.738281 161.574219 189.496094 161.515625 189.25 C 161.40625 188.753906 161.3125 188.238281 161.238281 187.714844 C 161.160156 187.1875 161.105469 186.648438 161.074219 186.109375 C 161.050781 185.839844 161.046875 185.566406 161.039062 185.296875 C 161.035156 185.027344 161.035156 184.757812 161.039062 184.492188 C 161.050781 184.226562 161.058594 183.960938 161.074219 183.699219 C 161.09375 183.4375 161.113281 183.179688 161.140625 182.929688 C 161.171875 182.675781 161.203125 182.429688 161.238281 182.1875 C 161.28125 181.945312 161.320312 181.707031 161.363281 181.480469 C 161.414062 181.253906 161.460938 181.03125 161.511719 180.816406 C 161.5625 180.605469 161.621094 180.402344 161.675781 180.207031 C 161.78125 179.816406 161.914062 179.464844 162.019531 179.15625 C 162.144531 178.851562 162.246094 178.582031 162.34375 178.367188 C 162.441406 178.152344 162.523438 177.988281 162.582031 177.875 C 162.636719 177.761719 162.664062 177.703125 162.664062 177.703125 L 162.875 177.777344 C 162.875 177.777344 162.859375 177.84375 162.835938 177.964844 C 162.808594 178.085938 162.773438 178.265625 162.722656 178.488281 C 162.671875 178.714844 162.625 178.992188 162.5625 179.304688 C 162.535156 179.460938 162.507812 179.628906 162.480469 179.804688 C 162.449219 179.980469 162.417969 180.164062 162.394531 180.359375 C 162.371094 180.554688 162.339844 180.753906 162.316406 180.964844 C 162.296875 181.171875 162.269531 181.386719 162.246094 181.609375 C 162.230469 181.832031 162.210938 182.0625 162.191406 182.292969 C 162.179688 182.527344 162.164062 182.765625 162.152344 183.007812 C 162.136719 183.25 162.136719 183.496094 162.125 183.746094 C 162.121094 183.996094 162.121094 184.246094 162.121094 184.5 C 162.125 184.757812 162.128906 185.011719 162.132812 185.269531 C 162.136719 185.398438 162.144531 185.527344 162.148438 185.65625 C 162.152344 185.789062 162.15625 185.917969 162.164062 186.046875 C 162.179688 186.304688 162.195312 186.5625 162.214844 186.820312 C 162.226562 186.949219 162.234375 187.078125 162.242188 187.207031 C 162.257812 187.335938 162.269531 187.460938 162.28125 187.589844 C 162.328125 188.097656 162.390625 188.597656 162.453125 189.082031 C 162.519531 189.566406 162.589844 190.035156 162.664062 190.476562 C 162.699219 190.699219 162.742188 190.914062 162.773438 191.125 C 162.8125 191.332031 162.851562 191.535156 162.886719 191.726562 C 162.960938 192.113281 163.035156 192.46875 163.101562 192.785156 C 163.171875 193.097656 163.226562 193.375 163.28125 193.601562 C 163.335938 193.828125 163.375 194.007812 163.40625 194.128906 C 163.433594 194.25 163.449219 194.316406 163.449219 194.316406 " fill-opacity="1" fill-rule="nonzero"/><path fill="#f68712" d="M 163.523438 178.078125 C 163.691406 177.65625 163.480469 177.179688 163.058594 177.011719 C 162.632812 176.847656 162.152344 177.054688 161.988281 177.480469 C 161.820312 177.902344 162.03125 178.378906 162.453125 178.542969 C 162.878906 178.710938 163.359375 178.5 163.523438 178.078125 " fill-opacity="1" fill-rule="nonzero"/><path fill="#498536" d="M 165.835938 200.019531 C 165.835938 200.019531 165.777344 199.984375 165.671875 199.917969 C 165.566406 199.847656 165.40625 199.753906 165.21875 199.613281 C 165.023438 199.476562 164.792969 199.308594 164.535156 199.105469 C 164.28125 198.898438 163.996094 198.664062 163.699219 198.390625 C 163.398438 198.121094 163.082031 197.816406 162.761719 197.480469 C 162.683594 197.398438 162.601562 197.3125 162.519531 197.226562 C 162.4375 197.140625 162.355469 197.050781 162.277344 196.960938 C 162.109375 196.78125 161.949219 196.589844 161.789062 196.394531 C 161.464844 196.007812 161.140625 195.59375 160.832031 195.160156 C 160.523438 194.726562 160.226562 194.273438 159.949219 193.808594 C 159.804688 193.578125 159.675781 193.335938 159.546875 193.101562 C 159.417969 192.863281 159.292969 192.625 159.175781 192.386719 C 159.0625 192.144531 158.949219 191.90625 158.839844 191.667969 C 158.738281 191.425781 158.636719 191.1875 158.546875 190.949219 C 158.457031 190.710938 158.371094 190.476562 158.292969 190.246094 C 158.21875 190.011719 158.144531 189.785156 158.078125 189.5625 C 158.015625 189.335938 157.957031 189.117188 157.902344 188.90625 C 157.851562 188.691406 157.808594 188.484375 157.769531 188.285156 C 157.683594 187.890625 157.636719 187.519531 157.589844 187.195312 C 157.558594 186.867188 157.527344 186.582031 157.515625 186.347656 C 157.507812 186.113281 157.503906 185.925781 157.5 185.800781 C 157.496094 185.675781 157.496094 185.609375 157.496094 185.609375 L 157.71875 185.582031 C 157.71875 185.582031 157.734375 185.644531 157.769531 185.765625 C 157.800781 185.886719 157.851562 186.0625 157.910156 186.285156 C 157.96875 186.503906 158.054688 186.773438 158.140625 187.078125 C 158.1875 187.230469 158.246094 187.390625 158.300781 187.5625 C 158.355469 187.734375 158.410156 187.910156 158.480469 188.09375 C 158.546875 188.277344 158.609375 188.472656 158.6875 188.667969 C 158.765625 188.863281 158.839844 189.066406 158.921875 189.273438 C 159.007812 189.480469 159.097656 189.691406 159.1875 189.90625 C 159.28125 190.117188 159.378906 190.335938 159.480469 190.558594 C 159.578125 190.78125 159.691406 191 159.796875 191.226562 C 159.90625 191.449219 160.023438 191.675781 160.140625 191.902344 C 160.261719 192.125 160.382812 192.351562 160.503906 192.578125 C 160.570312 192.691406 160.632812 192.804688 160.699219 192.917969 C 160.761719 193.03125 160.824219 193.144531 160.890625 193.253906 C 161.023438 193.476562 161.15625 193.699219 161.292969 193.917969 C 161.359375 194.027344 161.425781 194.140625 161.496094 194.25 C 161.566406 194.355469 161.632812 194.464844 161.703125 194.570312 C 161.976562 195.003906 162.265625 195.417969 162.542969 195.820312 C 162.824219 196.21875 163.101562 196.605469 163.371094 196.964844 C 163.503906 197.148438 163.640625 197.316406 163.769531 197.488281 C 163.898438 197.65625 164.023438 197.820312 164.148438 197.976562 C 164.390625 198.285156 164.621094 198.566406 164.824219 198.816406 C 165.03125 199.0625 165.207031 199.285156 165.359375 199.460938 C 165.511719 199.636719 165.628906 199.777344 165.710938 199.871094 C 165.792969 199.96875 165.835938 200.019531 165.835938 200.019531 " fill-opacity="1" fill-rule="nonzero"/><g clip-path="url(#e74d1c4854)"><path fill="#498536" d="M 158.433594 185.550781 C 158.386719 185.101562 157.980469 184.769531 157.527344 184.816406 C 157.074219 184.863281 156.746094 185.269531 156.792969 185.71875 C 156.835938 186.171875 157.242188 186.5 157.695312 186.453125 C 158.152344 186.40625 158.480469 186.003906 158.433594 185.550781 " fill-opacity="1" fill-rule="nonzero"/></g></svg>